<svg width="40" height="39" viewBox="0 0 40 39" fill="none" xmlns="http://www.w3.org/2000/svg">
<path d="M7.75146 1.25C7.8679 1.09475 8.01888 0.968751 8.19245 0.881966C8.36602 0.795181 8.55741 0.75 8.75146 0.75H31.2515C31.4455 0.75 31.6369 0.795181 31.8105 0.881966C31.9841 0.968751 32.135 1.09475 32.2515 1.25L39.6915 11.185C40.064 11.6475 40.0815 12.31 39.7165 12.795L21.0015 37.75C20.885 37.9052 20.7341 38.0312 20.5605 38.118C20.3869 38.2048 20.1955 38.25 20.0015 38.25C19.8074 38.25 19.616 38.2048 19.4424 38.118C19.2689 38.0312 19.1179 37.9052 19.0015 37.75L0.251465 12.75C0.0891872 12.5336 0.00146484 12.2705 0.00146484 12C0.00146484 11.7295 0.0891872 11.4664 0.251465 11.25L7.75146 1.25ZM36.2165 10.7125L31.7015 4.6875L29.7615 10.72L36.2165 10.7125ZM27.134 10.7225L29.5365 3.25H10.4665L12.874 10.7375L27.134 10.7225ZM13.6765 13.2375L20.0015 32.915L26.3315 13.225L13.6765 13.2375ZM10.249 10.74L8.29896 4.685L3.75396 10.7475L10.249 10.74ZM3.74896 13.25L16.5315 30.2925L11.0515 13.2425L3.74896 13.25ZM23.4715 30.2925L36.279 13.2175L28.959 13.2225L23.4715 30.2925Z" fill="#5277DF"/>
</svg>
