<svg width="40" height="41" viewBox="0 0 40 41" fill="none" xmlns="http://www.w3.org/2000/svg">
<path d="M19.9698 40.5C18.9656 40.4922 18.0048 40.09 17.2948 39.38L1.12726 23.205C0.771601 22.8497 0.489458 22.4279 0.296956 21.9635C0.104455 21.4991 0.00537109 21.0014 0.00537109 20.4987C0.00537109 19.996 0.104455 19.4983 0.296956 19.0339C0.489458 18.5696 0.771601 18.1477 1.12726 17.7925L17.2948 1.62497C17.65 1.26894 18.0721 0.986478 18.5367 0.793755C19.0012 0.601032 19.4993 0.501831 20.0023 0.501831C20.5052 0.501831 21.0033 0.601032 21.4679 0.793755C21.9324 0.986478 22.3545 1.26894 22.7098 1.62497L38.8823 17.795C39.2413 18.1541 39.5253 18.5811 39.7176 19.0511C39.9099 19.5211 40.0066 20.0247 40.0023 20.5325C39.9945 21.5366 39.5922 22.4974 38.8823 23.2075L22.7073 39.38C22.3484 39.7387 21.9218 40.0225 21.4523 40.2148C20.9827 40.4071 20.4771 40.504 19.9698 40.5ZM19.0998 3.42497L11.9173 10.61L20.0023 18.695L28.0873 10.61L20.9048 3.42497C20.7863 3.30629 20.6457 3.21214 20.4908 3.1479C20.3359 3.08366 20.1699 3.05059 20.0023 3.05059C19.8346 3.05059 19.6686 3.08366 19.5137 3.1479C19.3589 3.21214 19.2182 3.30629 19.0998 3.42497ZM21.8073 20.5L29.8923 28.585L37.0748 21.4025C37.5748 20.9025 37.5748 20.095 37.0748 19.5975L29.8923 12.415L21.8073 20.5ZM20.0023 22.305L11.9173 30.39L19.0998 37.5725C19.5998 38.0725 20.4073 38.0725 20.9048 37.5725L28.0873 30.39L20.0023 22.305ZM18.1973 20.5L10.1123 12.415L2.92726 19.5975C2.80858 19.7159 2.71443 19.8566 2.65018 20.0114C2.58594 20.1663 2.55288 20.3323 2.55288 20.5C2.55288 20.6676 2.58594 20.8336 2.65018 20.9885C2.71443 21.1434 2.80858 21.284 2.92726 21.4025L10.1123 28.585L18.1973 20.5Z" fill="#5277DF"/>
</svg>
