<svg width="1440" height="238" viewBox="0 0 1440 238" fill="none" xmlns="http://www.w3.org/2000/svg">
<g clip-path="url(#clip0_711_189)">
<rect width="1440" height="238" fill="#F1F5FD"/>
<circle cx="1271" cy="3" r="4" fill="#5277DF"/>
<circle cx="1287" cy="3" r="4" fill="#5277DF"/>
<circle cx="1303" cy="3" r="4" fill="#5277DF"/>
<circle cx="1319" cy="3" r="4" fill="#5277DF"/>
<circle cx="1335" cy="3" r="4" fill="#5277DF"/>
<circle cx="1351" cy="3" r="4" fill="#5277DF"/>
<circle cx="1271" cy="19" r="4" fill="#5277DF"/>
<circle cx="1287" cy="19" r="4" fill="#5277DF"/>
<circle cx="1303" cy="19" r="4" fill="#5277DF"/>
<circle cx="1319" cy="19" r="4" fill="#5277DF"/>
<circle cx="1335" cy="19" r="4" fill="#5277DF"/>
<circle cx="1351" cy="19" r="4" fill="#5277DF"/>
<circle cx="1271" cy="35" r="4" fill="#5277DF"/>
<circle cx="1287" cy="35" r="4" fill="#5277DF"/>
<circle cx="1303" cy="35" r="4" fill="#5277DF"/>
<circle cx="1319" cy="35" r="4" fill="#5277DF"/>
<circle cx="1335" cy="35" r="4" fill="#5277DF"/>
<circle cx="1351" cy="35" r="4" fill="#5277DF"/>
<circle cx="1271" cy="51" r="4" fill="#5277DF"/>
<circle cx="1287" cy="51" r="4" fill="#5277DF"/>
<circle cx="1303" cy="51" r="4" fill="#5277DF"/>
<circle cx="1319" cy="51" r="4" fill="#5277DF"/>
<circle cx="1335" cy="51" r="4" fill="#5277DF"/>
<circle cx="1351" cy="51" r="4" fill="#5277DF"/>
<circle cx="3" cy="156" r="4" fill="#A7C0F1"/>
<circle cx="19" cy="156" r="4" fill="#A7C0F1"/>
<circle cx="3" cy="172" r="4" fill="#A7C0F1"/>
<circle cx="19" cy="172" r="4" fill="#A7C0F1"/>
<circle cx="3" cy="188" r="4" fill="#A7C0F1"/>
<circle cx="19" cy="188" r="4" fill="#A7C0F1"/>
<circle cx="3" cy="204" r="4" fill="#A7C0F1"/>
<circle cx="19" cy="204" r="4" fill="#A7C0F1"/>
<circle cx="3" cy="220" r="4" fill="#A7C0F1"/>
<circle cx="19" cy="220" r="4" fill="#A7C0F1"/>
<rect x="207" y="188" width="108" height="108" stroke="#C7D7F6" stroke-width="2"/>
<rect x="1144" y="202" width="61" height="61" fill="#DFE8FA"/>
<rect x="1185.5" y="181.5" width="31" height="31" stroke="#739AE7"/>
</g>
<defs>
<clipPath id="clip0_711_189">
<rect width="1440" height="238" fill="white"/>
</clipPath>
</defs>
</svg>
