<svg width="40" height="39" viewBox="0 0 40 39" fill="none" xmlns="http://www.w3.org/2000/svg">
<path d="M7.16407 36.6251C6.96907 37.7351 8.06407 38.6026 9.02907 38.1076L20.0041 32.4676L30.9766 38.1076C31.9416 38.6026 33.0366 37.7351 32.8416 36.6276L30.7666 24.8026L39.5716 16.4126C40.3966 15.6276 39.9716 14.1926 38.8666 14.0376L26.6216 12.2976L21.1616 1.48005C21.0576 1.26077 20.8935 1.07551 20.6884 0.945783C20.4832 0.816056 20.2455 0.747192 20.0028 0.747192C19.7601 0.747192 19.5224 0.816056 19.3173 0.945783C19.1122 1.07551 18.9481 1.26077 18.8441 1.48005L13.3841 12.3001L1.13908 14.0401C0.036575 14.1951 -0.390925 15.6301 0.431575 16.4151L9.23907 24.805L7.16407 36.6301V36.6251ZM19.4266 29.7076L10.2116 34.4426L11.9466 24.5501C11.9883 24.3223 11.973 24.0878 11.9019 23.8675C11.8307 23.6471 11.7061 23.4479 11.5391 23.2876L4.27408 16.3626L14.4041 14.9226C14.6135 14.8899 14.812 14.8074 14.983 14.6821C15.1539 14.5569 15.2923 14.3924 15.3866 14.2026L19.9991 5.05755L24.6166 14.2026C24.7108 14.3924 24.8492 14.5569 25.0202 14.6821C25.1911 14.8074 25.3897 14.8899 25.5991 14.9226L35.7291 16.3601L28.4641 23.2851C28.2967 23.4456 28.1718 23.6453 28.1007 23.8661C28.0295 24.0869 28.0144 24.3219 28.0566 24.5501L29.7916 34.4426L20.5766 29.7076C20.3986 29.6151 20.2009 29.5668 20.0003 29.5668C19.7997 29.5668 19.6046 29.6151 19.4266 29.7076Z" fill="white"/>
</svg>
