<svg width="260" height="74" viewBox="0 0 260 74" fill="none" xmlns="http://www.w3.org/2000/svg">
<path d="M77.0266 47.9242H75.7304L74.5782 53.2424H73.8581L75.0103 47.9242H73.498L73.7861 47.2773H77.2426L77.0266 47.9242Z" fill="#5F5A5A"/>
<path d="M80.123 50.9427L79.6189 53.2425H79.0428L79.5469 50.9427C79.6189 50.7271 79.6189 50.4397 79.6189 50.2959C79.6189 50.0803 79.6189 49.9366 79.5469 49.7928C79.4749 49.6491 79.4029 49.5054 79.3309 49.4335C79.2589 49.3616 79.1148 49.2898 78.9708 49.2898C78.7548 49.2898 78.5387 49.4335 78.3227 49.5772C78.1067 49.7928 77.9627 50.0084 77.8186 50.2959C77.6746 50.5834 77.5306 50.8709 77.3866 51.2302C77.2425 51.5895 77.1705 51.877 77.0985 52.0926L76.8105 53.1707H76.2344L77.5306 47.2056H78.1067L77.3866 50.5834C77.5306 50.224 77.6746 49.9366 77.8186 49.6491C77.8906 49.5054 77.9627 49.4335 78.0347 49.2898C78.1067 49.146 78.1787 49.0741 78.3227 49.0023C78.3947 48.9304 78.5387 48.8585 78.6828 48.7867C78.8268 48.7148 78.8988 48.7148 79.0428 48.7148C79.2589 48.7148 79.4749 48.7867 79.6189 48.8585C79.7629 48.9304 79.907 49.146 79.979 49.2898C80.051 49.5054 80.123 49.721 80.123 50.0084C80.267 50.2959 80.195 50.5834 80.123 50.9427Z" fill="#5F5A5A"/>
<path d="M84.1561 50.5833C84.084 50.7989 84.012 50.9427 83.94 50.9427C83.868 51.0145 83.796 51.0864 83.796 51.0864L81.4196 51.2301C81.3476 51.4457 81.3476 51.6613 81.4196 51.877C81.4196 51.9488 81.4916 52.0207 81.4916 52.1644C81.4916 52.2363 81.5636 52.3082 81.6357 52.38C81.7077 52.4519 81.7797 52.5238 81.8517 52.5956C81.9237 52.6675 82.0677 52.6675 82.2117 52.7394C82.4278 52.8112 82.5718 52.8112 82.7878 52.7394C82.9319 52.7394 83.0759 52.6675 83.2199 52.5956C83.3639 52.5238 83.508 52.4519 83.58 52.38L83.4359 52.8831C83.4359 52.955 83.4359 52.955 83.3639 52.955L83.2919 53.0268C83.2919 53.0268 83.2199 53.0269 83.1479 53.0987C83.0759 53.0987 83.0039 53.1706 82.9319 53.1706C82.8598 53.1706 82.7158 53.2425 82.5718 53.2425C82.4278 53.2425 82.2117 53.2425 82.0677 53.2425C81.8517 53.1706 81.6357 53.0987 81.4916 53.0268C81.2756 52.8831 81.1316 52.7394 81.0596 52.5238C80.9155 52.3082 80.8435 52.0926 80.8435 51.877C80.7715 51.5895 80.8435 51.3739 80.8435 51.0145C80.9155 50.6552 81.0596 50.2958 81.2036 50.0084C81.3476 49.7209 81.5636 49.5053 81.7077 49.2897C81.9237 49.0741 82.1397 48.9303 82.3558 48.8585C82.5718 48.7866 82.8599 48.7147 83.0759 48.7866C83.2919 48.7866 83.508 48.8585 83.724 49.0022C83.868 49.1459 84.012 49.2897 84.084 49.4334C84.1561 49.5772 84.2281 49.7928 84.2281 50.0084C84.2281 50.224 84.2281 50.3677 84.1561 50.5833ZM83.58 50.4396C83.58 50.2958 83.652 50.1521 83.58 50.0084C83.58 49.8646 83.508 49.7209 83.508 49.649C83.4359 49.5772 83.3639 49.4334 83.2919 49.3616C83.2199 49.2897 83.0759 49.2178 82.9319 49.2178C82.7878 49.2178 82.6438 49.2178 82.4998 49.2897C82.3558 49.3616 82.2838 49.3616 82.1397 49.4334C82.0677 49.5053 81.9237 49.5772 81.8517 49.649C81.7797 49.7209 81.7077 49.8646 81.6357 49.9365C81.4916 50.1521 81.4196 50.4396 81.3476 50.7271L83.2919 50.5833C83.3639 50.5833 83.3639 50.5833 83.4359 50.5114C83.508 50.5114 83.58 50.5115 83.58 50.4396Z" fill="#5F5A5A"/>
<path d="M89.7724 53.2423L89.6284 52.0206H87.252L86.6039 53.2423H85.8838L88.9803 47.3491H89.8444L90.4925 53.2423H89.7724ZM89.2683 48.0678L87.5401 51.3738H89.5564L89.2683 48.0678Z" fill="#5F5A5A"/>
<path d="M92.2935 48.8583L91.3573 53.2423H90.7812L91.7174 48.8583H92.2935ZM92.6535 47.7802C92.6535 47.924 92.5815 47.9958 92.5095 47.9958C92.4375 48.0677 92.3655 48.0677 92.2215 48.0677C92.1495 48.0677 92.0775 47.9958 92.0054 47.924C91.9334 47.8521 91.9334 47.7802 91.9334 47.7084C91.9334 47.6365 92.0054 47.4928 92.0775 47.4928C92.1495 47.4209 92.2215 47.4209 92.3655 47.4209C92.4375 47.4209 92.5095 47.4928 92.5815 47.4928C92.6535 47.5646 92.6535 47.6365 92.6535 47.7802Z" fill="#5F5A5A"/>
<path d="M95.3175 49.4335L95.2454 49.3617C95.2454 49.3617 95.1734 49.2898 95.1014 49.2898C95.0294 49.2898 94.9574 49.2898 94.8854 49.2898C94.7414 49.2898 94.5973 49.3617 94.4533 49.4335C94.3093 49.5054 94.2373 49.6491 94.0933 49.7929C93.9492 49.9366 93.8772 50.1522 93.8052 50.296C93.7332 50.5116 93.6612 50.7272 93.5172 50.9428C93.4452 51.1584 93.3731 51.374 93.3011 51.5896C93.2291 51.8052 93.1571 52.0208 93.1571 52.1645L92.8691 53.2426H92.293L93.2291 48.8586H93.8052L93.4452 50.3678C93.5172 50.0803 93.6612 49.7929 93.7332 49.5773C93.8052 49.5054 93.8772 49.3617 93.8772 49.2898C93.9492 49.2179 94.0212 49.0742 94.0933 49.0023C94.1653 48.9305 94.2373 48.8586 94.3813 48.7867C94.4533 48.7148 94.5973 48.7148 94.6693 48.7148C94.8134 48.7148 94.8854 48.7148 94.9574 48.7148C95.0294 48.7148 95.1014 48.7867 95.1014 48.7867C95.1734 48.7867 95.1734 48.8586 95.1734 48.9305V49.4335H95.3175Z" fill="#5F5A5A"/>
<path d="M95.2453 53.2424H94.7412L95.9654 47.2773H96.5415L95.2453 53.2424Z" fill="#5F5A5A"/>
<path d="M97.6939 48.8583L96.7577 53.2423H96.1816L97.1178 48.8583H97.6939ZM98.0539 47.7802C98.0539 47.924 97.9819 47.9958 97.9099 47.9958C97.8379 48.0677 97.7659 48.0677 97.6219 48.0677C97.5499 48.0677 97.4778 47.9958 97.4058 47.924C97.3338 47.8521 97.3338 47.7802 97.3338 47.7084C97.3338 47.6365 97.4058 47.4928 97.4778 47.4928C97.5499 47.4209 97.6219 47.4209 97.7659 47.4209C97.8379 47.4209 97.9099 47.4928 97.9819 47.4928C98.0539 47.5646 98.0539 47.6365 98.0539 47.7802Z" fill="#5F5A5A"/>
<path d="M101.222 50.9428L100.718 53.2426H100.142L100.646 50.9428C100.718 50.7272 100.718 50.4397 100.718 50.296C100.718 50.0803 100.718 49.9366 100.646 49.7929C100.574 49.6491 100.502 49.5054 100.43 49.4335C100.358 49.3617 100.214 49.2898 100.07 49.2898C99.8539 49.2898 99.6379 49.4335 99.4219 49.5773C99.2058 49.7929 99.0618 50.0085 98.9178 50.296C98.7737 50.5834 98.6297 50.8709 98.4857 51.2302C98.3417 51.5896 98.2697 51.8771 98.1977 52.0927L97.9096 53.1707H97.4775L98.4137 48.8586H98.9178L98.5577 50.5834C98.7017 50.2241 98.8458 49.9366 98.9898 49.6491C99.0618 49.5054 99.1338 49.4335 99.2058 49.2898C99.2778 49.1461 99.4218 49.0742 99.4939 49.0023C99.5659 48.9305 99.7099 48.8586 99.8539 48.7867C99.9979 48.7148 100.07 48.7148 100.214 48.7148C100.43 48.7148 100.646 48.7867 100.79 48.8586C100.934 48.9305 101.078 49.1461 101.15 49.2898C101.222 49.5054 101.294 49.721 101.294 50.0085C101.366 50.296 101.294 50.5834 101.222 50.9428Z" fill="#5F5A5A"/>
<path d="M105.256 50.5833C105.184 50.7989 105.112 50.9427 105.04 50.9427C104.968 51.0145 104.896 51.0864 104.896 51.0864L102.519 51.2301C102.447 51.4457 102.519 51.6613 102.519 51.877C102.519 51.9488 102.591 52.0207 102.591 52.1644C102.663 52.2363 102.663 52.3082 102.735 52.38C102.807 52.4519 102.879 52.5238 102.951 52.5956C103.023 52.6675 103.167 52.6675 103.311 52.7394C103.527 52.8112 103.671 52.8112 103.887 52.7394C104.031 52.7394 104.175 52.6675 104.32 52.5956C104.464 52.5238 104.608 52.4519 104.68 52.38L104.536 52.8831C104.536 52.955 104.536 52.955 104.464 52.955L104.392 53.0268C104.392 53.0268 104.32 53.0269 104.248 53.0987C104.175 53.0987 104.103 53.1706 104.031 53.1706C103.959 53.1706 103.815 53.2425 103.671 53.2425C103.527 53.2425 103.311 53.2425 103.167 53.2425C102.951 53.1706 102.735 53.0987 102.591 53.0268C102.375 52.8831 102.231 52.7394 102.159 52.5238C102.015 52.3082 101.943 52.0926 101.943 51.877C101.871 51.5895 101.943 51.3739 101.943 51.0145C102.015 50.6552 102.159 50.2958 102.303 50.0084C102.447 49.7209 102.663 49.5053 102.879 49.2897C103.095 49.0741 103.311 48.9303 103.527 48.8585C103.743 48.7866 104.031 48.7147 104.248 48.7866C104.464 48.7866 104.68 48.8585 104.896 49.0022C105.04 49.1459 105.184 49.2897 105.256 49.4334C105.328 49.5772 105.4 49.7928 105.4 50.0084C105.328 50.224 105.256 50.3677 105.256 50.5833ZM104.68 50.4396C104.752 50.2958 104.752 50.1521 104.68 50.0084C104.68 49.8646 104.608 49.7209 104.536 49.649C104.464 49.5772 104.392 49.4334 104.32 49.3616C104.248 49.2897 104.103 49.2178 103.959 49.2178C103.815 49.2178 103.671 49.2178 103.527 49.2897C103.383 49.3616 103.311 49.3616 103.167 49.4334C103.095 49.5053 103.023 49.5772 102.879 49.649C102.807 49.7209 102.735 49.8646 102.663 49.9365C102.519 50.1521 102.447 50.4396 102.375 50.7271L104.32 50.5833C104.392 50.5833 104.392 50.5833 104.464 50.5114C104.608 50.5114 104.68 50.5115 104.68 50.4396Z" fill="#5F5A5A"/>
<path d="M111.089 51.0144C111.017 51.3738 110.945 51.7331 110.801 52.0206C110.657 52.3081 110.513 52.5955 110.296 52.7393C110.08 52.9549 109.864 53.0986 109.648 53.1705C109.432 53.2424 109.144 53.3142 108.784 53.2424C108.496 53.1705 108.208 53.0986 107.992 52.9549C107.776 52.8112 107.704 52.5955 107.56 52.3799C107.488 52.1643 107.416 51.9487 107.416 51.7331C107.416 51.5175 107.416 51.3019 107.416 51.0863C107.488 50.727 107.56 50.3676 107.704 50.0801C107.848 49.7927 107.992 49.5052 108.136 49.3615C108.352 49.1459 108.568 49.0021 108.784 48.9303C109.072 48.8584 109.36 48.7865 109.648 48.8584C109.936 48.8584 110.152 49.0021 110.368 49.1459C110.585 49.2896 110.729 49.5052 110.801 49.7208C110.873 49.9364 110.945 50.152 111.017 50.4395C111.161 50.5114 111.161 50.7988 111.089 51.0144ZM110.44 51.0863C110.44 50.9426 110.44 50.7988 110.513 50.5832C110.513 50.3676 110.513 50.2239 110.44 50.0083C110.368 49.7927 110.296 49.6489 110.224 49.5052C110.08 49.3615 109.936 49.2896 109.72 49.2177C109.504 49.2177 109.288 49.2177 109.144 49.2896C109 49.3615 108.856 49.5052 108.712 49.6489C108.568 49.7927 108.496 50.0083 108.424 50.2958C108.352 50.5114 108.28 50.7988 108.208 51.0863C108.208 51.3019 108.136 51.5175 108.208 51.7331C108.208 51.9487 108.28 52.0925 108.28 52.2362C108.352 52.3799 108.424 52.5237 108.568 52.5955C108.712 52.6674 108.856 52.7393 109 52.8112C109.216 52.8112 109.432 52.8112 109.648 52.6674C109.864 52.5237 110.008 52.4518 110.08 52.2362C110.224 52.0925 110.296 51.8769 110.368 51.6613C110.368 51.4457 110.368 51.23 110.44 51.0863Z" fill="#5F5A5A"/>
<path d="M113.897 47.9243C113.897 47.8524 113.825 47.8524 113.825 47.7805C113.825 47.7805 113.753 47.7086 113.681 47.7086C113.609 47.7086 113.537 47.7086 113.465 47.7086C113.393 47.7086 113.321 47.7086 113.248 47.7805C113.176 47.8524 113.104 47.8524 113.104 47.9243C113.032 47.9961 113.032 48.068 113.032 48.1399C113.032 48.2117 113.032 48.2836 112.96 48.2836L112.888 48.7867H113.681L113.537 49.2179H112.744L111.664 54.4643H111.16L112.24 49.2179H111.592L111.736 48.7867H112.384L112.456 48.2836C112.456 48.1399 112.528 47.9961 112.6 47.8524C112.672 47.7086 112.744 47.6368 112.816 47.493C112.888 47.4212 112.96 47.2774 113.104 47.2774C113.248 47.2056 113.32 47.2056 113.465 47.2056C113.609 47.2056 113.681 47.2056 113.753 47.2774C113.825 47.2774 113.897 47.3493 113.897 47.3493C113.969 47.3493 113.969 47.4212 113.969 47.493V47.9243H113.897Z" fill="#5F5A5A"/>
<path d="M115.697 53.2424H114.977L116.201 47.2773H116.921L115.697 53.2424Z" fill="#5F5A5A"/>
<path d="M120.378 50.9428L119.874 53.2426H119.298L119.802 50.9428C119.874 50.7272 119.874 50.4397 119.874 50.296C119.874 50.0803 119.874 49.9366 119.802 49.7929C119.73 49.6491 119.658 49.5054 119.586 49.4335C119.514 49.3617 119.37 49.2898 119.226 49.2898C119.01 49.2898 118.794 49.4335 118.578 49.5773C118.362 49.7929 118.218 50.0085 118.074 50.296C117.929 50.5834 117.785 50.8709 117.641 51.2302C117.497 51.5896 117.425 51.8771 117.353 52.0927L117.065 53.1707H116.489L117.425 48.8586H118.001L117.641 50.5834C117.785 50.2241 117.929 49.9366 118.074 49.6491C118.146 49.5054 118.218 49.4335 118.29 49.2898C118.362 49.1461 118.434 49.0742 118.578 49.0023C118.65 48.9305 118.794 48.8586 118.938 48.7867C119.082 48.7148 119.154 48.7148 119.298 48.7148C119.514 48.7148 119.73 48.7867 119.874 48.8586C120.018 48.9305 120.162 49.1461 120.234 49.2898C120.306 49.5054 120.378 49.721 120.378 50.0085C120.522 50.296 120.45 50.5834 120.378 50.9428Z" fill="#5F5A5A"/>
<path d="M125.203 47.2773L123.979 53.2424H123.402L123.763 51.4457C123.619 51.8051 123.547 52.0925 123.33 52.3081C123.258 52.4519 123.186 52.5238 123.114 52.6675C123.042 52.7394 122.898 52.8831 122.826 52.955C122.754 53.0268 122.61 53.0987 122.466 53.1706C122.322 53.2424 122.25 53.2424 122.106 53.2424C121.818 53.2424 121.602 53.1706 121.458 53.0268C121.314 52.8831 121.17 52.6675 121.098 52.4519C121.026 52.2363 120.954 51.9488 120.954 51.7332C120.954 51.4457 120.954 51.2301 121.026 51.0145C121.098 50.727 121.17 50.4396 121.314 50.1521C121.458 49.8646 121.602 49.649 121.746 49.4334C121.89 49.2178 122.106 49.0741 122.322 48.9303C122.538 48.7866 122.826 48.7147 123.042 48.7147C123.258 48.7147 123.402 48.7147 123.547 48.7866C123.691 48.8585 123.763 48.9303 123.907 49.0022C123.979 49.0741 124.051 49.1459 124.195 49.2897L124.627 47.2773H125.203ZM124.123 49.7209C124.051 49.5771 123.979 49.5053 123.907 49.4334C123.835 49.3615 123.763 49.2897 123.619 49.2897C123.475 49.2178 123.33 49.2178 123.186 49.2178C122.97 49.2178 122.754 49.2897 122.61 49.3615C122.466 49.4334 122.322 49.5771 122.178 49.7209C122.034 49.8646 121.962 50.0802 121.89 50.2958C121.818 50.5114 121.746 50.7989 121.674 51.0864C121.674 51.302 121.602 51.5176 121.602 51.7332C121.602 51.9488 121.602 52.0925 121.674 52.2363C121.746 52.38 121.746 52.5238 121.89 52.5956C121.962 52.6675 122.106 52.7394 122.178 52.7394C122.322 52.7394 122.466 52.7394 122.538 52.6675C122.682 52.5956 122.826 52.4519 122.898 52.3081C123.042 52.1644 123.114 51.9488 123.258 51.8051C123.402 51.5895 123.475 51.3739 123.547 51.1582C123.619 50.9426 123.691 50.727 123.763 50.5114C123.835 50.2958 123.907 50.0802 123.907 49.9365L124.123 49.7209Z" fill="#5F5A5A"/>
<path d="M128.587 51.0144C128.515 51.3738 128.443 51.7331 128.299 52.0206C128.155 52.3081 128.011 52.5955 127.795 52.7393C127.578 52.9549 127.362 53.0986 127.146 53.1705C126.858 53.2424 126.642 53.3142 126.282 53.2424C125.994 53.1705 125.706 53.0986 125.49 52.9549C125.274 52.8112 125.202 52.5955 125.058 52.3799C124.986 52.1643 124.914 51.9487 124.914 51.7331C124.914 51.5175 124.914 51.3019 124.914 51.0863C124.986 50.727 125.058 50.3676 125.202 50.0801C125.346 49.7927 125.49 49.5052 125.634 49.3615C125.85 49.1459 126.066 49.0021 126.282 48.9303C126.57 48.8584 126.858 48.7865 127.146 48.8584C127.434 48.8584 127.65 49.0021 127.867 49.1459C128.083 49.2896 128.227 49.5052 128.299 49.7208C128.371 49.9364 128.443 50.152 128.515 50.4395C128.659 50.5114 128.659 50.7988 128.587 51.0144ZM127.939 51.0863C127.939 50.9426 127.939 50.7988 128.011 50.5832C128.011 50.3676 128.011 50.2239 127.939 50.0083C127.867 49.7927 127.795 49.6489 127.723 49.5052C127.578 49.3615 127.434 49.2896 127.218 49.2177C127.002 49.2177 126.786 49.2177 126.642 49.2896C126.498 49.3615 126.354 49.5052 126.21 49.6489C126.066 49.7927 125.994 50.0083 125.922 50.2958C125.85 50.5114 125.778 50.7988 125.706 51.0863C125.706 51.3019 125.634 51.5175 125.706 51.7331C125.706 51.9487 125.778 52.0925 125.778 52.2362C125.85 52.3799 125.922 52.5237 126.066 52.5955C126.21 52.6674 126.354 52.7393 126.498 52.8112C126.714 52.8112 126.93 52.8112 127.146 52.6674C127.362 52.5237 127.506 52.4518 127.578 52.2362C127.723 52.0925 127.795 51.8769 127.867 51.6613C127.867 51.4457 127.939 51.23 127.939 51.0863Z" fill="#5F5A5A"/>
<path d="M132.403 50.9428L131.899 53.2426H131.323L131.827 50.9428C131.899 50.7272 131.899 50.4397 131.899 50.296C131.899 50.0803 131.899 49.9366 131.827 49.7929C131.755 49.6491 131.683 49.5054 131.611 49.4335C131.539 49.3617 131.395 49.2898 131.251 49.2898C131.035 49.2898 130.819 49.4335 130.603 49.5773C130.387 49.7929 130.243 50.0085 130.099 50.296C129.955 50.5834 129.811 50.8709 129.667 51.2302C129.523 51.5896 129.451 51.8771 129.379 52.0927L129.091 53.1707H128.515L129.451 48.8586H130.027L129.667 50.5834C129.811 50.2241 129.955 49.9366 130.099 49.6491C130.171 49.5054 130.243 49.4335 130.315 49.2898C130.387 49.1461 130.459 49.0742 130.603 49.0023C130.675 48.9305 130.819 48.8586 130.963 48.7867C131.107 48.7148 131.251 48.7148 131.323 48.7148C131.539 48.7148 131.755 48.7867 131.899 48.8586C132.043 48.9305 132.187 49.1461 132.259 49.2898C132.331 49.5054 132.403 49.721 132.403 50.0085C132.547 50.296 132.475 50.5834 132.403 50.9428Z" fill="#5F5A5A"/>
<path d="M136.436 50.5833C136.364 50.7989 136.292 50.9427 136.22 50.9427C136.148 51.0145 136.076 51.0864 136.076 51.0864L133.7 51.2301C133.628 51.4457 133.628 51.6613 133.7 51.877C133.7 51.9488 133.772 52.0207 133.772 52.1644C133.844 52.2363 133.844 52.3082 133.916 52.38C133.988 52.4519 134.06 52.5238 134.132 52.5956C134.204 52.6675 134.348 52.6675 134.492 52.7394C134.708 52.8112 134.852 52.8112 135.068 52.7394C135.212 52.7394 135.356 52.6675 135.5 52.5956C135.644 52.5238 135.788 52.4519 135.86 52.38L135.716 52.8831C135.716 52.955 135.716 52.955 135.644 52.955L135.572 53.0268C135.572 53.0268 135.5 53.0269 135.428 53.0987C135.356 53.0987 135.284 53.1706 135.212 53.1706C135.14 53.1706 134.996 53.2425 134.852 53.2425C134.708 53.2425 134.492 53.2425 134.348 53.2425C134.132 53.1706 133.916 53.0987 133.772 53.0268C133.628 52.8831 133.412 52.7394 133.34 52.5238C133.196 52.3082 133.124 52.0926 133.124 51.877C133.052 51.5895 133.124 51.3739 133.124 51.0145C133.196 50.6552 133.34 50.2958 133.484 50.0084C133.628 49.7209 133.844 49.5053 134.06 49.2897C134.276 49.0741 134.492 48.9303 134.708 48.8585C134.924 48.7866 135.212 48.7147 135.428 48.7866C135.644 48.7866 135.86 48.8585 136.076 49.0022C136.22 49.1459 136.364 49.2897 136.436 49.4334C136.508 49.5772 136.58 49.7928 136.58 50.0084C136.508 50.224 136.508 50.3677 136.436 50.5833ZM135.86 50.4396C135.932 50.2958 135.932 50.1521 135.86 50.0084C135.86 49.8646 135.788 49.7209 135.716 49.649C135.644 49.5772 135.572 49.4334 135.5 49.3616C135.428 49.2897 135.284 49.2178 135.14 49.2178C134.996 49.2178 134.852 49.2178 134.708 49.2897C134.564 49.3616 134.492 49.3616 134.348 49.4334C134.276 49.5053 134.132 49.5772 134.132 49.649C134.06 49.7209 133.988 49.8646 133.916 49.9365C133.772 50.1521 133.7 50.4396 133.628 50.7271L135.572 50.5833C135.644 50.5833 135.644 50.5833 135.716 50.5114C135.788 50.5114 135.86 50.5115 135.86 50.4396Z" fill="#5F5A5A"/>
<path d="M139.533 49.649C139.461 49.5771 139.389 49.5053 139.317 49.4334C139.245 49.3615 139.173 49.3615 139.029 49.2897C138.957 49.2178 138.813 49.2178 138.669 49.2178C138.381 49.2178 138.165 49.2178 138.021 49.2897C137.877 49.3615 137.733 49.5053 137.733 49.7209C137.733 49.8646 137.733 50.0084 137.805 50.1521C137.877 50.2958 137.949 50.3677 138.093 50.5114C138.237 50.6552 138.309 50.727 138.453 50.8708C138.597 51.0145 138.741 51.0864 138.813 51.2301C138.957 51.3739 139.029 51.5176 139.101 51.6613C139.173 51.8051 139.173 52.0207 139.173 52.1644C139.173 52.38 139.101 52.5238 139.029 52.6675C138.957 52.8112 138.813 52.955 138.669 53.0268C138.525 53.0987 138.381 53.1706 138.165 53.1706C137.949 53.1706 137.805 53.2424 137.589 53.1706C137.445 53.1706 137.301 53.0987 137.157 53.0987C137.013 53.0268 136.941 53.0268 136.797 52.955C136.725 52.8831 136.653 52.8831 136.581 52.8112C136.509 52.7394 136.509 52.7394 136.509 52.7394C136.437 52.6675 136.437 52.6675 136.437 52.5956C136.437 52.5238 136.437 52.5238 136.437 52.4519L136.509 52.0925C136.581 52.1644 136.725 52.2363 136.869 52.3081C136.941 52.38 137.085 52.4519 137.229 52.4519C137.373 52.5238 137.517 52.5238 137.661 52.5238C137.733 52.5238 137.877 52.5238 137.949 52.5238C138.021 52.5238 138.165 52.4519 138.237 52.4519C138.309 52.38 138.381 52.38 138.453 52.3081C138.525 52.2363 138.525 52.1644 138.597 52.0207C138.597 51.8769 138.597 51.7332 138.525 51.5895C138.453 51.4457 138.381 51.302 138.237 51.2301C138.093 51.0864 138.021 51.0145 137.877 50.8708C137.733 50.727 137.589 50.6552 137.517 50.5114C137.373 50.3677 137.301 50.224 137.229 50.0802C137.157 49.9365 137.157 49.7927 137.157 49.5771C137.157 49.4334 137.229 49.2178 137.301 49.0741C137.373 48.9303 137.517 48.8585 137.661 48.7147C137.805 48.6429 137.949 48.571 138.093 48.4991C138.237 48.4272 138.453 48.4272 138.669 48.4272C138.813 48.4272 138.957 48.4272 139.029 48.4991C139.173 48.4991 139.245 48.571 139.317 48.571C139.389 48.6429 139.461 48.6429 139.533 48.7147V49.649Z" fill="#5F5A5A"/>
<path d="M140.973 48.8583L140.037 53.2423H139.461L140.397 48.8583H140.973ZM141.261 47.7802C141.261 47.924 141.189 47.9958 141.117 47.9958C141.045 48.0677 140.973 48.0677 140.829 48.0677C140.757 48.0677 140.685 47.9958 140.613 47.924C140.541 47.8521 140.541 47.7802 140.541 47.7084C140.541 47.6365 140.613 47.4928 140.685 47.4928C140.757 47.4209 140.829 47.4209 140.973 47.4209C141.045 47.4209 141.117 47.4928 141.189 47.4928C141.261 47.5646 141.333 47.6365 141.261 47.7802Z" fill="#5F5A5A"/>
<path d="M144.861 48.8586L143.925 53.2426H143.349L143.781 51.4459C143.637 51.8052 143.565 52.0927 143.349 52.3083C143.277 52.452 143.205 52.5239 143.133 52.6676C143.061 52.7395 142.917 52.8832 142.845 52.9551C142.773 53.027 142.629 53.0988 142.485 53.1707C142.341 53.2426 142.269 53.2426 142.125 53.2426C141.837 53.2426 141.621 53.1707 141.477 53.027C141.333 52.8832 141.189 52.6676 141.117 52.452C141.045 52.2364 140.973 51.9489 140.973 51.7333C140.973 51.4459 140.973 51.2302 141.045 51.0146C141.117 50.7272 141.189 50.4397 141.333 50.1522C141.477 49.8647 141.621 49.6491 141.765 49.4335C141.909 49.2179 142.125 49.0742 142.413 48.9305C142.629 48.7867 142.917 48.7148 143.133 48.7148C143.349 48.7148 143.493 48.7148 143.637 48.7867C143.781 48.8586 143.853 48.9305 143.997 49.0023C144.069 49.0742 144.141 49.1461 144.285 49.2898C144.285 49.2179 144.285 49.2179 144.285 49.1461V49.0742V49.0023C144.357 48.9305 144.429 48.8586 144.501 48.8586H144.861ZM144.141 49.721C144.069 49.5773 143.997 49.5054 143.925 49.4335C143.853 49.3617 143.781 49.2898 143.637 49.2898C143.493 49.2179 143.349 49.2179 143.205 49.2179C142.989 49.2179 142.773 49.2898 142.629 49.4335C142.485 49.5773 142.269 49.721 142.197 49.8647C142.053 50.0803 141.981 50.2241 141.909 50.4397C141.837 50.6553 141.765 50.8709 141.765 51.0146C141.693 51.2302 141.693 51.4459 141.693 51.6615C141.693 51.8771 141.693 52.0208 141.765 52.1645C141.837 52.3083 141.909 52.452 141.981 52.5239C142.053 52.5957 142.197 52.6676 142.269 52.6676C142.413 52.6676 142.557 52.6676 142.629 52.5957C142.773 52.5239 142.917 52.3801 142.989 52.2364C143.133 52.0927 143.205 51.8771 143.349 51.7333C143.493 51.5177 143.565 51.3021 143.637 51.0865C143.709 50.8709 143.781 50.6553 143.853 50.4397C143.925 50.2241 143.997 50.0085 143.997 49.8647L144.141 49.721Z" fill="#5F5A5A"/>
<path d="M202.11 34.269C203.479 35.6345 204.343 37.5031 204.487 39.5154C204.775 44.115 201.39 48.0678 196.781 48.3553C194.621 48.499 192.605 47.8522 191.021 46.5586C192.677 48.0678 194.837 48.9302 197.286 48.7865C201.894 48.499 205.279 44.4744 204.991 39.9467C204.847 37.6469 203.767 35.6345 202.11 34.269Z" fill="#00498B"/>
<path d="M187.42 43.6842C187.132 43.8279 187.132 44.0435 187.204 44.4029C187.348 44.6903 187.492 44.8341 187.708 44.7622C187.852 44.6903 187.924 44.5466 187.852 44.1873V44.0435C187.78 43.6842 187.78 43.5404 187.852 43.3248C187.924 43.1811 187.996 43.0374 188.14 42.9655C188.5 42.8217 188.86 43.0374 189.076 43.6123C189.292 44.1873 189.22 44.6185 188.716 44.7622L188.572 44.4747C188.86 44.331 188.932 44.0435 188.788 43.6123C188.644 43.253 188.428 43.1092 188.212 43.1811C187.996 43.253 187.996 43.3967 188.068 43.8279V43.9716V44.1154C188.14 44.4029 188.14 44.4747 188.068 44.6185C187.996 44.7622 187.924 44.9059 187.78 44.9059C187.42 45.0497 187.06 44.8341 186.916 44.4029C186.7 43.8998 186.844 43.4686 187.204 43.3248L187.42 43.6842Z" fill="#00498B"/>
<path d="M187.133 40.6653L188.429 39.6592V40.0185L187.349 40.8809L187.709 41.3122L188.429 41.2403V41.5996H186.341V41.3122H187.133H187.349L187.277 41.2403L187.205 41.1684L186.269 40.1623V39.731L187.133 40.6653Z" fill="#00498B"/>
<path d="M188.141 37.3596L188.933 37.6471L188.861 37.9346L188.069 37.6471L186.557 38.0783L186.701 37.719L187.637 37.4315H187.781C187.853 37.4315 187.853 37.4315 187.925 37.3596C187.853 37.2878 187.853 37.2878 187.781 37.144L187.205 36.3535L187.349 35.9941L188.141 37.3596Z" fill="#00498B"/>
<path d="M189.58 33.4789L189.076 33.982L190.444 35.1319L190.156 35.4912L188.788 34.4132L188.356 34.9163L187.996 34.7006L189.22 33.1914L189.58 33.4789Z" fill="#00498B"/>
<path d="M192.462 31.3944L191.381 32.0412L191.598 32.4724L192.606 31.8975L192.75 32.185L191.814 32.7599L192.03 33.1911L193.182 32.5443L193.326 32.9036L191.814 33.8379L190.733 31.9694L192.246 31.1069L192.462 31.3944Z" fill="#00498B"/>
<path d="M195.342 31.1789C195.198 30.9633 195.198 30.8914 195.126 30.7477C195.126 30.8914 195.054 31.0352 195.054 31.2508L194.982 31.682L195.63 31.6101L195.342 31.1789ZM196.566 32.2569L195.99 32.3288L195.702 31.8976L194.838 32.0413L194.694 32.5444L194.189 32.6882L194.766 30.3165L195.27 30.2446L196.566 32.2569Z" fill="#00498B"/>
<path d="M200.023 32.9755L199.591 32.8317L199.735 32.1849C199.735 32.113 199.807 32.0412 199.807 31.8974C199.807 31.7537 199.879 31.6818 199.879 31.6099C199.879 31.5381 199.951 31.4662 199.951 31.3225L200.023 31.1787C199.879 31.3943 199.879 31.4662 199.735 31.6099C199.663 31.6818 199.663 31.7537 199.591 31.8256L199.015 32.688L198.655 32.6161L198.511 31.6099C198.511 31.5381 198.511 31.4662 198.511 31.3943C198.511 31.2506 198.511 31.1787 198.511 31.1069C198.511 31.035 198.511 30.9631 198.511 30.8194L198.439 31.1069C198.367 31.3943 198.367 31.5381 198.295 31.8256L198.151 32.5442L197.646 32.4724L198.223 30.3882L198.943 30.5319L199.015 31.5381C199.015 31.7537 199.015 31.9693 199.015 32.2568C199.087 32.113 199.159 32.0412 199.231 31.8974C199.303 31.8256 199.375 31.7537 199.375 31.6099L199.951 30.8194L200.671 31.035L200.023 32.9755Z" fill="#00498B"/>
<path d="M199.95 39.8747C200.598 39.4435 201.102 39.2279 201.391 39.2279C201.607 39.2279 201.823 39.2998 201.823 39.5154C201.823 39.731 201.607 39.9466 201.174 40.0903C200.814 40.234 200.166 40.234 199.518 40.1622C199.734 40.0903 199.878 39.9466 199.95 39.8747ZM191.309 40.5934C190.949 40.5934 190.733 40.3778 190.733 40.0903C190.733 40.0184 190.733 39.0842 192.893 39.0123C193.109 39.0123 193.397 39.0123 193.829 39.0123L193.613 39.2279L193.469 39.3716C192.965 39.8747 192.101 40.6653 191.309 40.5934ZM195.918 37.0718C195.63 37.2874 195.126 37.7905 194.621 38.2936L194.045 38.8685C193.613 38.7967 193.109 38.7248 192.677 38.7248C191.669 38.7248 190.661 39.0123 190.229 39.4435C190.085 39.5872 190.013 39.8028 190.013 40.0184C190.013 40.5215 190.589 40.809 190.805 40.809C191.741 41.1683 192.533 41.0246 193.325 40.4497C193.757 40.1622 194.333 39.6591 194.765 39.2279C195.126 39.2998 195.486 39.3716 195.846 39.5154L196.206 39.6591C195.702 40.1622 195.198 40.6653 194.765 41.0246C194.117 41.5996 193.685 41.9589 193.037 42.1026C192.533 42.1745 192.245 42.1026 192.101 42.0308C192.461 42.3182 192.821 42.5338 193.469 42.462C194.045 42.3901 194.765 42.0308 195.486 41.3839L196.422 40.4497L197.07 39.8028L198.438 40.1622L197.574 40.9527L196.854 41.6714C196.134 42.3901 195.702 42.7494 195.27 43.0369C194.549 43.54 193.973 43.8275 193.397 43.8275C193.109 43.8275 192.749 43.8275 192.389 43.6119C192.749 43.8993 193.181 44.2587 193.973 44.2587C194.837 44.2587 195.63 43.8275 196.782 42.7494C197.358 42.2464 197.862 41.6714 198.366 41.1683L199.23 40.234C199.806 40.3778 200.31 40.4497 200.886 40.3778C201.751 40.3778 202.471 39.9466 202.471 39.5154C202.471 39.156 202.183 39.0123 202.039 38.8685C201.895 38.7967 201.535 38.5811 201.03 38.5811C200.382 38.5811 199.734 38.8685 199.086 39.3716L198.654 39.731L198.51 39.6591L197.286 39.2998C197.646 38.9404 197.934 38.6529 198.222 38.4373C198.87 37.8624 199.662 37.5749 200.094 37.5749C200.382 37.5749 200.958 37.5749 201.174 37.7186C200.598 37.2156 200.022 37.1437 199.59 37.1437C199.158 37.1437 198.51 37.2874 197.646 37.9343C197.286 38.2217 196.854 38.6529 196.422 39.0842L195.774 38.8685L195.63 38.7967L194.981 38.5811L195.342 38.2217C195.774 37.7905 196.206 37.3593 196.494 37.0718C197.646 36.0657 198.438 35.9219 198.942 35.9219C199.518 35.9219 199.95 36.0657 200.31 36.2813C199.662 35.7063 199.158 35.4907 198.366 35.4907C197.646 35.9219 196.782 36.3531 195.918 37.0718Z" fill="#00498B"/>
<path d="M201.247 31.3227C201.319 31.3227 201.391 31.3946 201.391 31.3227C201.391 31.3227 201.391 31.2508 201.319 31.2508L201.247 31.179V31.3227ZM201.319 31.6102L201.247 31.3946H201.175L201.103 31.5383H201.031L201.247 31.179L201.391 31.2508C201.463 31.2508 201.535 31.3227 201.463 31.3946C201.391 31.4664 201.391 31.4664 201.319 31.3946V31.6102ZM201.463 31.5383C201.535 31.3946 201.463 31.179 201.319 31.1071C201.175 31.0352 201.031 31.1071 200.887 31.2508C200.815 31.3946 200.887 31.5383 201.031 31.682C201.247 31.682 201.391 31.682 201.463 31.5383ZM200.887 31.2508C200.959 31.1071 201.175 30.9634 201.319 31.0352C201.535 31.1071 201.607 31.3227 201.535 31.4664C201.463 31.6102 201.247 31.7539 201.103 31.682C200.887 31.6102 200.815 31.3946 200.887 31.2508Z" fill="#00498B"/>
<path d="M164.664 29.5975C162 28.232 159.84 28.0883 158.832 28.0883H155.303L155.087 27.7289H159.264C159.552 27.7289 163.008 27.6571 165.097 28.232C167.617 28.8788 169.417 30.2443 169.777 30.46C170.137 30.6756 174.746 33.9815 174.746 33.9815C174.746 33.9815 173.954 34.7721 173.234 34.7721C172.514 34.7721 171.722 34.1971 171.722 34.1971C171.722 34.1971 169.201 32.4004 168.841 32.1129C168.409 31.9692 166.465 30.5318 164.664 29.5975Z" fill="#009CA9"/>
<path d="M164.449 32.1848C166.177 33.3347 167.258 34.1971 167.618 34.4846C167.978 34.7002 169.49 35.8501 169.49 35.8501C169.49 35.8501 170.21 36.4251 171.074 36.4251C171.722 36.4251 172.586 35.6345 172.586 35.6345C172.586 35.6345 168.842 32.9754 168.482 32.7598C168.122 32.5441 166.97 31.6099 164.737 30.963C162.865 30.46 160.2 30.46 160.056 30.46H156.672L156.888 30.8193C156.888 30.8193 159.48 30.8193 159.624 30.8193C159.984 30.8193 162.649 30.963 164.449 32.1848Z" fill="#009CA9"/>
<path d="M165.025 26.7951C167.329 28.0169 169.561 29.6698 169.921 30.0292C170.353 30.3167 173.738 32.7602 173.738 32.7602C173.738 32.7602 174.53 33.3351 175.25 33.3351C175.97 33.3351 176.762 32.5446 176.762 32.5446C176.762 32.5446 171.29 28.6637 170.857 28.3043C170.353 27.945 168.409 26.3639 165.241 25.6452C162.792 24.9984 158.688 25.0702 158.399 25.0702H153.431L153.647 25.4296H157.967C158.904 25.3577 162.432 25.4296 165.025 26.7951Z" fill="#009CA9"/>
<path d="M184.756 26.7949C184.108 26.6512 183.172 26.6512 183.172 26.6512L181.947 27.0105L181.227 26.4356C181.227 26.4356 182.667 26.5793 183.1 26.5793C183.46 26.5793 183.316 26.4356 183.172 26.0763C183.028 25.7169 182.595 25.7169 182.595 25.7169H178.995C178.995 25.7169 178.347 25.7169 177.627 25.5732C176.907 25.4294 176.618 24.8545 176.618 24.8545C176.33 25.5013 177.483 26.2919 177.483 26.2919L181.083 28.8791C181.515 29.1666 181.947 28.951 181.947 28.951C181.947 28.951 182.884 28.5198 183.388 28.3761C183.82 28.2323 185.26 28.2323 185.476 28.2323C185.908 28.3042 186.34 28.6635 186.34 28.6635C186.484 27.0105 185.476 26.8668 184.756 26.7949Z" fill="#003473"/>
<path d="M165.744 21.4766C168.265 22.5546 171.793 25.2138 172.297 25.645C172.802 26.0043 177.986 29.6696 177.986 29.6696C177.986 29.6696 178.779 30.2446 179.571 30.2446C180.291 30.2446 181.083 29.5259 181.083 29.5259C181.083 29.5259 173.81 24.2795 173.306 23.9201C172.802 23.5608 170.353 21.5485 165.888 20.3267C162.792 19.5361 157.463 19.5361 156.887 19.5361H150.334L150.55 19.8955H156.599C158.039 19.8955 162.432 20.0392 165.744 21.4766Z" fill="#003473"/>
<path d="M165.385 24.1357C162.721 22.7702 159.336 22.6265 157.464 22.6265H152.135L151.919 22.2671H157.68C158.328 22.2671 162.649 22.1953 165.601 22.914C168.914 23.7045 171.794 25.8606 172.082 26.0762C172.37 26.2918 178.995 30.9632 178.995 30.9632C178.995 30.9632 178.275 31.7538 177.411 31.7538C176.691 31.7538 175.827 31.1788 175.827 31.1788C175.827 31.1788 171.506 28.0885 171.146 27.801C170.714 27.5135 167.906 25.3575 165.385 24.1357Z" fill="#003473"/>
<path d="M69.5376 43.4683C69.4656 43.4683 69.1775 43.4683 69.0335 43.3246C68.8895 43.1808 68.8895 43.0371 68.8895 42.8934V42.4622C68.3854 43.1808 67.5933 43.6121 66.4411 43.6121C64.5688 43.5402 64.1367 42.1028 64.1367 41.2404C64.1367 40.9529 64.1367 40.378 64.5688 39.803C65.2169 38.8687 66.6571 38.5813 67.8813 38.5813C68.3854 38.5813 68.8175 38.6531 68.8175 38.6531V37.8626C68.8175 37.5751 68.8175 37.072 68.5294 36.7127C68.3134 36.4252 67.8093 36.2096 67.0172 36.2096C65.721 36.2096 64.8568 36.9283 64.8568 36.9283L65.0009 35.9221C65.0009 35.9221 65.865 35.3472 67.3052 35.3472C68.4574 35.3472 69.3215 35.6346 69.7536 36.1377C70.3297 36.7127 70.4737 37.2158 70.4737 38.2938V43.5402M68.8175 39.3718C68.8175 39.3718 68.3854 39.2999 67.9533 39.2999C66.8732 39.2999 66.081 39.803 65.865 40.5217C65.793 40.6654 65.793 40.9529 65.793 41.0967C65.793 42.0309 66.4411 42.534 67.2332 42.534C67.3772 42.534 67.6653 42.534 67.8813 42.3903C68.4574 42.1747 68.8895 41.8153 68.8895 41.2404V39.3718H68.8175Z" fill="#5F5A5A"/>
<path d="M74.7942 36.4251C73.426 36.7126 73.2819 37.7187 73.2819 38.5093V43.4682H71.6977V36.3532C71.6977 35.6346 71.2656 35.4908 71.2656 35.4908H72.8499C73.2099 35.4908 73.354 35.7064 73.354 35.922V36.3532C73.426 36.2095 74.0021 35.4189 75.0102 35.4189C75.3703 35.4189 75.7303 35.4189 75.9464 35.5627L76.1624 36.5688C75.8744 36.4251 75.4423 36.2814 74.7942 36.4251Z" fill="#5F5A5A"/>
<path d="M82.4274 43.4681C82.3554 43.4681 82.0673 43.4681 81.9233 43.3244C81.7793 43.1807 81.7793 42.9651 81.7793 42.8932V42.462C81.3472 43.1807 80.5551 43.6119 79.5469 43.6119C78.6828 43.6119 78.1787 43.3963 77.6746 42.8932C77.1706 42.3182 77.0265 41.5996 77.0265 40.5934V36.2094C77.0265 35.6345 76.5225 35.4907 76.5225 35.4907H78.0347C78.3948 35.4907 78.6108 35.7063 78.6108 35.9219V40.7371C78.6108 42.1745 79.0429 42.5338 80.051 42.5338C80.8432 42.5338 81.7793 41.9589 81.7793 41.1683V35.4907H83.3636V43.4681" fill="#5F5A5A"/>
<path d="M104.247 43.4682C103.887 43.4682 103.743 43.3244 103.743 42.8932V33.5503C103.743 32.9754 103.311 32.7598 103.311 32.7598H104.823C105.255 32.7598 105.471 32.9754 105.471 33.3347V43.5401" fill="#5F5A5A"/>
<path d="M125.922 43.6119C123.33 43.6119 122.394 41.9589 122.394 39.5872C122.394 37.3593 123.33 35.347 125.922 35.4189C128.587 35.4189 129.379 37.4312 129.379 39.5872C129.379 41.8152 128.082 43.6119 125.922 43.6119ZM125.922 36.2094C124.338 36.2094 124.05 37.8624 124.05 39.5872C124.05 41.7433 124.626 42.8213 125.922 42.8213C127.074 42.8213 127.65 41.4558 127.65 39.5872C127.65 38.078 127.506 36.2094 125.922 36.2094Z" fill="#5F5A5A"/>
<path d="M149.758 42.8933C149.182 43.3964 148.462 43.612 147.598 43.612H147.526C146.301 43.612 145.581 43.2526 145.293 43.1089L145.077 42.1746C145.077 42.1746 146.157 42.8933 147.31 42.8933C148.39 42.8933 149.038 42.3183 148.966 41.3122C148.822 39.7311 145.293 40.1623 145.293 37.575C145.293 36.1376 146.445 35.4189 147.886 35.4189H147.958C149.398 35.4189 149.974 35.922 149.974 35.922L150.19 36.7844C150.19 36.7844 149.542 36.1376 148.318 36.1376C146.949 36.1376 146.805 37.2157 146.877 37.5031C146.949 38.2937 147.526 38.4374 148.606 38.9405C149.686 39.4436 150.55 40.0185 150.55 41.1684C150.478 41.959 150.19 42.5339 149.758 42.8933Z" fill="#5F5A5A"/>
<path d="M151.919 43.4681C151.631 43.4681 151.487 43.3244 151.487 43.0369V36.2094C151.487 35.7063 150.982 35.4907 150.982 35.4907H152.639C152.999 35.4907 153.071 35.6345 153.071 35.9938V43.4681" fill="#5F5A5A"/>
<path d="M108.207 35.5626C108.495 35.5626 108.639 35.7063 108.639 35.9938V36.6406C109.071 35.9219 109.864 35.4907 110.872 35.4907C111.736 35.4907 112.24 35.7063 112.744 36.2094C113.248 36.7844 113.392 37.503 113.392 38.5092V43.6119H112.456C112.024 43.6119 111.808 43.3244 111.808 42.9651V38.2217C111.808 36.7844 111.376 36.425 110.368 36.425C109.576 36.425 108.639 37 108.639 37.7905V43.4681H107.055V36.2094C107.055 35.6345 106.623 35.4907 106.623 35.4907" fill="#5F5A5A"/>
<path d="M159.48 43.4683C159.408 43.4683 159.12 43.4683 158.976 43.3246C158.832 43.1808 158.832 43.0371 158.832 42.8934V42.4622C158.328 43.1808 157.535 43.6121 156.311 43.6121C154.439 43.5402 154.007 42.1028 154.007 41.2404C154.007 40.9529 154.007 40.378 154.439 39.803C155.087 38.8687 156.527 38.5813 157.751 38.5813C158.256 38.5813 158.688 38.6531 158.688 38.6531V37.8626C158.688 37.5751 158.76 37.072 158.4 36.7127C158.184 36.4252 157.679 36.2096 156.815 36.2096C155.375 36.2096 154.727 36.9283 154.727 36.9283L154.871 35.9221C154.871 35.9221 155.735 35.3472 157.175 35.3472C158.328 35.3472 159.12 35.6346 159.624 36.1377C160.2 36.7127 160.272 37.2158 160.272 38.2938V43.5402M158.76 39.3718C158.76 39.3718 158.328 39.2999 157.895 39.2999C156.815 39.2999 156.023 39.803 155.807 40.5217C155.735 40.6654 155.735 40.9529 155.735 41.0967C155.735 42.0309 156.383 42.534 157.175 42.534C157.319 42.534 157.607 42.534 157.751 42.3903C158.328 42.1747 158.76 41.8153 158.76 41.2404V39.3718Z" fill="#5F5A5A"/>
<path d="M89.9167 43.4682C89.6287 43.4682 89.4846 43.3963 89.4846 43.1088V42.7495C88.9085 43.2526 88.3324 43.6119 87.3963 43.6119C85.0919 43.6119 84.2998 41.6715 84.2998 39.5873C84.2998 38.0062 84.9479 35.4189 87.4683 35.4189C88.9806 35.4189 89.4126 36.3532 89.4126 36.3532V33.6222C89.4126 33.0472 88.9085 32.7598 88.9085 32.7598H90.1327C90.6368 32.7598 90.9249 33.1191 90.9249 33.4785V43.6119M89.4126 38.2218C89.4126 37.7906 89.3406 37.0719 88.9806 36.7125C88.6925 36.4251 88.3324 36.2813 87.7564 36.2813C86.1721 36.2813 86.0281 38.3655 86.0281 39.4435V39.5873C86.0281 41.1684 86.4602 42.6776 87.7564 42.6776C88.4765 42.6776 88.9806 42.3902 89.3406 41.8871V38.2218H89.4126Z" fill="#5F5A5A"/>
<path d="M97.6223 43.4683C97.5503 43.4683 97.2622 43.4683 97.1182 43.3246C96.9742 43.1808 96.9742 43.0371 96.9742 42.8934V42.4622C96.4701 43.1808 95.678 43.6121 94.4538 43.6121C92.5815 43.5402 92.1494 42.1028 92.1494 41.2404C92.1494 40.9529 92.1494 40.378 92.5815 39.803C93.2296 38.8687 94.6698 38.5813 95.894 38.5813C96.3981 38.5813 96.8302 38.6531 96.8302 38.6531V37.8626C96.8302 37.5751 96.8302 37.072 96.5421 36.7127C96.3261 36.4252 95.822 36.2096 95.0299 36.2096C93.7337 36.2096 92.8695 36.9283 92.8695 36.9283L93.0136 35.9221C93.0136 35.9221 93.8777 35.3472 95.3179 35.3472C96.4701 35.3472 97.3342 35.6346 97.7663 36.1377C98.3424 36.7127 98.4864 37.2158 98.4864 38.2938V43.5402M96.9022 39.3718C96.9022 39.3718 96.4701 39.2999 96.038 39.2999C94.9579 39.2999 94.1657 39.803 93.9497 40.5217C93.8777 40.6654 93.8777 40.9529 93.8777 41.0967C93.8777 42.0309 94.5258 42.534 95.3179 42.534C95.4619 42.534 95.75 42.534 95.894 42.3903C96.4701 42.1747 96.9022 41.8153 96.9022 41.2404V39.3718Z" fill="#5F5A5A"/>
<path d="M120.162 43.4682C119.874 43.4682 119.73 43.3963 119.73 43.1088V42.7495C119.154 43.2526 118.578 43.6119 117.642 43.6119C115.409 43.6119 114.617 41.6715 114.617 39.5873C114.617 38.0062 115.265 35.4189 117.786 35.4189C119.298 35.4189 119.73 36.3532 119.73 36.3532V33.6222C119.73 33.0472 119.298 32.7598 119.298 32.7598H120.522C121.026 32.7598 121.314 33.1191 121.314 33.4785V43.6119M119.658 38.2218C119.658 37.7906 119.586 37.0719 119.226 36.7125C119.01 36.4251 118.578 36.2813 118.002 36.2813C116.417 36.2813 116.273 38.3655 116.273 39.4435V39.5873C116.273 41.1684 116.706 42.6776 118.002 42.6776C118.722 42.6776 119.226 42.3902 119.586 41.8871V38.2218H119.658Z" fill="#5F5A5A"/>
<path d="M131.54 35.5626C131.828 35.5626 131.972 35.7063 131.972 35.9938V36.6406C132.404 35.9219 133.196 35.4907 134.276 35.4907C135.14 35.4907 135.644 35.7063 136.148 36.2094C136.652 36.7844 136.796 37.503 136.796 38.5092V43.6119H135.86C135.428 43.6119 135.212 43.3244 135.212 42.9651V38.2217C135.212 36.7844 134.78 36.425 133.772 36.425C132.98 36.425 132.044 37 132.044 37.7905V43.4681H130.459V36.2094C130.459 35.6345 130.027 35.4907 130.027 35.4907" fill="#5F5A5A"/>
<path d="M61.5443 43.5402C60.8962 43.6121 60.5361 43.684 59.888 43.684C58.2317 43.684 57.2236 43.1809 56.4314 42.3903C55.2793 41.2404 54.9912 39.3719 54.9912 38.1501C54.9912 37.2158 55.1352 35.2753 56.7195 33.838C57.4396 33.1912 58.5198 32.6162 60.2481 32.6162C61.7603 32.6162 62.4804 33.0474 62.4804 33.0474L62.7685 34.0536C62.6964 34.0536 61.9043 33.5505 60.6801 33.5505C58.0157 33.5505 56.9355 35.3472 56.9355 38.1501C56.9355 42.3903 59.0239 42.7497 60.176 42.7497C61.0402 42.7497 61.3282 42.6059 61.3282 42.6059V38.3657H60.3201C59.672 38.3657 59.4559 38.4376 59.4559 38.4376L59.5999 37.5751H62.9845V43.2528C62.4084 43.3965 62.1204 43.4684 61.5443 43.5402Z" fill="#5F5A5A"/>
<path d="M141.981 35.3471C143.853 35.4909 144.286 36.8564 144.286 37.7188C144.286 38.0063 144.286 38.5812 143.853 39.1562C143.205 40.0905 141.765 40.3779 140.541 40.3779C140.037 40.3779 139.605 40.3061 139.605 40.3061V41.0248C139.605 42.3903 140.325 42.8215 141.549 42.7496C142.917 42.7496 143.997 41.8872 143.997 41.8872L143.853 42.8933C143.853 42.8933 142.629 43.612 141.189 43.612C140.037 43.612 139.101 43.3246 138.669 42.8215C138.093 42.2465 138.021 41.3841 138.021 40.3779V38.6531C138.021 37.1439 138.597 35.0597 141.981 35.3471ZM139.605 39.5155C139.605 39.5155 140.037 39.5874 140.469 39.5874C142.269 39.5874 142.629 38.725 142.701 37.7188C142.773 36.8564 142.557 35.9221 141.117 36.1377C139.893 36.2814 139.533 37.1439 139.533 38.15C139.605 38.9406 139.605 39.5155 139.605 39.5155Z" fill="#5F5A5A"/>
</svg>
