<svg width="260" height="74" viewBox="0 0 260 74" fill="none" xmlns="http://www.w3.org/2000/svg">
<path d="M139.086 15.4398L138.97 15.3236L137.118 13.4639L135.15 15.4398L137.118 17.4157L139.086 15.4398Z" fill="#BD8B13"/>
<path d="M143.136 15.4398L142.904 15.3236L141.053 13.4639L139.085 15.4398L141.053 17.4157L143.136 15.4398Z" fill="#BD8B13"/>
<path d="M115.938 14.9748C115.938 15.4397 116.4 15.5559 116.632 15.6722C117.095 15.7884 117.442 16.1371 117.442 16.7182V32.1766H134.456V32.409C134.456 32.5253 134.456 32.5252 134.456 32.8739C134.456 34.1524 134.919 34.966 135.613 35.3147C135.613 35.3147 136.076 35.5471 136.539 35.5471C137.002 35.5471 137.35 35.4309 137.812 35.0823L138.044 34.966L137.812 34.7336C137.35 34.2687 137.118 33.2226 137.118 32.409V32.2928H143.484V18.1129C143.484 18.1129 142.674 19.9726 139.549 22.1809C139.549 22.1809 139.664 22.7621 140.243 22.9945C141.053 23.4594 140.938 23.8081 140.938 23.8081V29.5033H137.002V29.2709V29.0384C137.002 27.6437 136.539 24.1568 132.836 24.1568H132.72C131.562 24.1568 130.521 24.1568 129.595 24.1568H129.363C127.164 24.1568 126.007 23.9243 125.544 23.3432L125.428 23.1108L125.313 23.227C124.85 23.4594 124.618 24.0406 124.618 24.6217C124.618 25.4353 125.197 26.5976 126.007 26.5976C126.586 26.5976 127.396 26.5976 128.206 26.5976C129.595 26.5976 131.1 26.5976 131.1 26.5976C134.225 26.5976 134.34 27.9923 134.34 28.5734V29.2709H119.988V10.4419C119.988 10.4419 118.252 12.7665 115.938 14.3937V14.5099V14.9748Z" fill="#BD8B13"/>
<path d="M106.099 34.501C106.099 34.501 105.867 36.8255 110.497 36.8255C114.317 36.8255 114.432 34.3847 114.432 34.3847V25.5514C114.432 24.9703 114.317 23.4593 112.696 23.4593H99.5018V22.4132C99.5018 22.1808 99.6175 22.1808 99.9647 21.9484C100.659 21.4835 100.775 21.1348 100.659 20.7861C99.1545 19.9725 97.5342 17.9966 97.5342 17.9966V25.6676H110.729H110.844C111.307 25.6676 111.886 25.7839 111.886 26.7137V32.99C111.886 32.99 111.886 34.2685 110.613 34.2685C108.53 34.2685 108.645 33.1062 108.645 33.1062V29.7356H97.5342V32.4089H106.215V34.501H106.099Z" fill="#BD8B13"/>
<path d="M161.308 16.7182C161.308 16.0208 161.771 15.9046 162.002 15.6721C162.234 15.5559 162.581 15.4396 162.697 14.8585V14.7423C162.697 14.5098 162.581 14.5098 162.234 14.2774C162.003 14.1611 161.54 13.8124 160.729 13.1151C159.34 11.9528 158.993 11.3717 158.993 11.3717L158.53 10.6743V32.2927H161.192C161.308 32.1765 161.308 17.1831 161.308 16.7182Z" fill="#BD8B13"/>
<path d="M152.28 35.0822L150.428 36.9418L148.576 35.0822L150.428 33.2225L152.28 35.0822ZM146.261 35.0822L150.659 39.4989L155.058 35.0822L152.396 32.409L155.636 29.0383V10.7905C155.636 10.7905 154.363 13.4638 152.28 14.8585V14.9748C152.28 15.4397 152.511 15.5559 152.859 15.6721C153.206 15.7883 153.437 16.1371 153.437 16.7182C153.437 17.2993 153.437 27.6436 153.437 27.6436L150.775 30.4331L148.113 27.6436C148.113 27.5274 148.113 17.0669 148.113 16.7182C148.113 16.0208 148.345 15.9046 148.692 15.6721C148.923 15.5559 149.155 15.4397 149.271 14.9748V14.8585C147.303 13.4638 145.914 10.7905 145.914 10.7905V29.2708L149.155 32.5252L146.261 35.0822Z" fill="#BD8B13"/>
<path d="M138.507 44.6129L139.201 45.0777C139.317 45.194 139.317 45.194 139.317 45.3102V51.0054H127.049L124.271 54.6085V45.3102V45.194L124.387 45.0777L124.965 44.6129V44.0317H118.831V44.6129L119.41 45.0777L119.526 45.194V62.1633V62.3958L119.41 62.512L118.831 62.9769V63.558H124.965V62.9769L124.271 62.512L124.155 62.3958V54.7247L124.85 54.8409L125.66 54.376L126.123 54.2598C126.123 54.2598 126.238 54.2598 126.354 54.2598H139.086V60.1874L143.715 55.1896V45.4264L143.831 45.3102L144.525 45.0777V44.4966H138.391V44.6129H138.507Z" fill="#BD8B13"/>
<path d="M204.595 51.5866C203.9 49.262 202.164 47.5185 199.734 46.0076C197.535 44.7291 194.294 44.1479 189.896 44.1479H173.113V44.7291L173.808 45.194V47.1699H189.664C192.905 47.1699 195.335 47.6348 196.724 48.4484C198.923 49.7269 200.081 51.5866 200.081 53.6787C200.081 54.8409 199.849 55.7708 199.271 56.8168C198.692 57.6304 197.766 58.5603 196.609 59.1414C195.104 59.955 192.673 60.4199 189.548 60.4199H181.215V48.5646H176.701V62.0471V62.1633L176.586 62.2795L176.007 62.512V63.0931H189.664C192.326 63.0931 194.294 62.9769 195.798 62.6282C197.766 62.1633 199.618 61.4659 201.007 60.5361C202.511 59.49 203.669 58.2115 204.248 56.933C204.71 55.887 204.942 54.9571 204.942 53.7949C204.826 53.0975 204.711 52.2839 204.595 51.5866Z" fill="#BD8B13"/>
<path d="M153.321 47.5186L138.391 63.2093H145.219V62.5119H144.988H144.756H144.525L155.867 50.4243L153.321 47.5186Z" fill="#BD8B13"/>
<path d="M168.368 62.6282V63.3256H175.081L157.141 44.1479L154.479 46.9375L157.373 50.0756L160.498 53.2137H155.289L152.512 56.2357L153.09 56.7006L153.785 56.2357H153.901C153.901 56.2357 154.132 56.2357 154.364 56.2357H163.044L169.063 62.7444C169.063 62.7444 168.947 62.8606 168.484 62.8606H168.368V62.6282Z" fill="#BD8B13"/>
<path d="M116.168 44.9616L116.747 44.4967V43.9155H110.729V44.4967L111.307 44.9616L111.539 45.1941V61.8147V62.0471L111.423 62.1633L110.729 62.3958V62.977H116.747V62.3958L116.168 62.1633L116.053 62.0471V45.3103V45.1941L116.168 44.9616Z" fill="#BD8B13"/>
<path d="M86.0761 59.4901H85.8447H85.1502L84.34 59.955C84.2243 60.0712 84.1085 60.0713 83.8771 60.0713H70.2197C67.0947 60.0713 64.7798 59.6063 63.1595 58.7927C60.7289 57.5142 59.6872 55.7708 59.6872 53.4462C59.6872 52.4002 59.9187 51.3542 60.6132 50.4243C61.7706 48.6809 63.3909 47.4024 65.9372 47.0537C66.6317 46.9375 67.2104 46.9375 67.6734 46.9375H74.7335C75.1965 46.9375 75.1965 47.0537 75.1965 47.0537L75.0808 47.6348H75.6595L78.553 43.9155H70.1039C68.1363 43.9155 66.6317 43.9156 65.59 44.0318C65.0113 44.0318 64.4326 44.148 64.0854 44.2642C62.6965 44.4967 61.4234 45.0779 60.1502 45.7752C58.0669 46.9375 56.678 48.4485 55.7521 50.1919C55.2891 51.2379 55.0576 52.2839 55.0576 53.5624C55.0576 56.7006 56.7937 59.1414 59.9187 61.0011C61.3076 61.8147 63.0437 62.3958 64.7798 62.7445C66.1687 62.9769 68.0206 62.977 70.2197 62.977H82.8354L86.0761 59.4901Z" fill="#BD8B13"/>
<path d="M79.2476 54.9571L82.1411 51.2378H62.3494L60.3818 54.2598H78.2059C78.4374 54.2598 78.6689 54.376 78.6689 54.376L78.5531 54.9571H79.2476Z" fill="#BD8B13"/>
<path d="M80.7524 44.0317L77.9746 47.6348L78.5533 47.751H78.6691L79.4793 47.2861C79.7107 47.1699 79.9422 47.0536 80.1737 47.0536H91.1691V61.9308V62.0471L91.0533 62.1633L90.4746 62.6282V63.2094H96.6089V62.6282L96.0302 62.1633L95.9144 62.0471V61.9308V47.0536H105.637C106.1 47.0536 106.1 47.1698 106.1 47.1698V47.751H106.678L109.572 44.0317H80.7524Z" fill="#BD8B13"/>
</svg>
